<mxfile host="app.diagrams.net" modified="2023-10-17T04:34:37.529Z" agent="Mozilla/5.0 (Windows NT 10.0; Win64; x64; rv:109.0) Gecko/20100101 Firefox/118.0" etag="Rys1qmrIuQTJBbIyXOUX" version="22.0.4" type="github">
  <diagram name="Page-1" id="CbQMFn_fTgDn-QoSqzh8">
    <mxGraphModel dx="880" dy="442" grid="1" gridSize="10" guides="1" tooltips="1" connect="1" arrows="1" fold="1" page="1" pageScale="1" pageWidth="850" pageHeight="1100" math="0" shadow="0">
      <root>
        <mxCell id="0" />
        <mxCell id="1" parent="0" />
        <mxCell id="ewH_RqWhpPK2ERaraLFU-2" value="Mulai" style="strokeWidth=2;html=1;shape=mxgraph.flowchart.terminator;whiteSpace=wrap;" vertex="1" parent="1">
          <mxGeometry x="370" y="230" width="100" height="60" as="geometry" />
        </mxCell>
        <mxCell id="ewH_RqWhpPK2ERaraLFU-7" value="Y" style="edgeStyle=orthogonalEdgeStyle;rounded=0;orthogonalLoop=1;jettySize=auto;html=1;exitX=1;exitY=0.5;exitDx=0;exitDy=0;exitPerimeter=0;entryX=0;entryY=0.5;entryDx=0;entryDy=0;strokeColor=#000000;" edge="1" parent="1" source="ewH_RqWhpPK2ERaraLFU-3" target="ewH_RqWhpPK2ERaraLFU-4">
          <mxGeometry x="-0.0184" y="10" relative="1" as="geometry">
            <mxPoint as="offset" />
          </mxGeometry>
        </mxCell>
        <mxCell id="ewH_RqWhpPK2ERaraLFU-8" value="T" style="edgeStyle=orthogonalEdgeStyle;rounded=0;orthogonalLoop=1;jettySize=auto;html=1;exitX=0;exitY=0.5;exitDx=0;exitDy=0;exitPerimeter=0;entryX=1;entryY=0.5;entryDx=0;entryDy=0;" edge="1" parent="1" source="ewH_RqWhpPK2ERaraLFU-3" target="ewH_RqWhpPK2ERaraLFU-5">
          <mxGeometry x="-0.0148" y="-10" relative="1" as="geometry">
            <mxPoint as="offset" />
          </mxGeometry>
        </mxCell>
        <mxCell id="ewH_RqWhpPK2ERaraLFU-3" value="Bilangan%2=0" style="strokeWidth=2;html=1;shape=mxgraph.flowchart.decision;whiteSpace=wrap;" vertex="1" parent="1">
          <mxGeometry x="370" y="330" width="100" height="100" as="geometry" />
        </mxCell>
        <mxCell id="ewH_RqWhpPK2ERaraLFU-4" value="Genap" style="shape=parallelogram;html=1;strokeWidth=2;perimeter=parallelogramPerimeter;whiteSpace=wrap;rounded=1;arcSize=12;size=0.23;" vertex="1" parent="1">
          <mxGeometry x="550" y="350" width="100" height="60" as="geometry" />
        </mxCell>
        <mxCell id="ewH_RqWhpPK2ERaraLFU-11" style="edgeStyle=orthogonalEdgeStyle;rounded=0;orthogonalLoop=1;jettySize=auto;html=1;exitX=0.5;exitY=1;exitDx=0;exitDy=0;" edge="1" parent="1" source="ewH_RqWhpPK2ERaraLFU-5" target="ewH_RqWhpPK2ERaraLFU-10">
          <mxGeometry relative="1" as="geometry" />
        </mxCell>
        <mxCell id="ewH_RqWhpPK2ERaraLFU-5" value="Ganjil" style="shape=parallelogram;html=1;strokeWidth=2;perimeter=parallelogramPerimeter;whiteSpace=wrap;rounded=1;arcSize=12;size=0.23;" vertex="1" parent="1">
          <mxGeometry x="180" y="350" width="100" height="60" as="geometry" />
        </mxCell>
        <mxCell id="ewH_RqWhpPK2ERaraLFU-9" style="edgeStyle=orthogonalEdgeStyle;rounded=0;orthogonalLoop=1;jettySize=auto;html=1;exitX=0.5;exitY=1;exitDx=0;exitDy=0;exitPerimeter=0;entryX=0.5;entryY=0;entryDx=0;entryDy=0;entryPerimeter=0;" edge="1" parent="1" source="ewH_RqWhpPK2ERaraLFU-2" target="ewH_RqWhpPK2ERaraLFU-3">
          <mxGeometry relative="1" as="geometry" />
        </mxCell>
        <mxCell id="ewH_RqWhpPK2ERaraLFU-10" value="Selesai" style="strokeWidth=2;html=1;shape=mxgraph.flowchart.terminator;whiteSpace=wrap;" vertex="1" parent="1">
          <mxGeometry x="370" y="540" width="100" height="60" as="geometry" />
        </mxCell>
        <mxCell id="ewH_RqWhpPK2ERaraLFU-12" style="edgeStyle=orthogonalEdgeStyle;rounded=0;orthogonalLoop=1;jettySize=auto;html=1;exitX=0.5;exitY=1;exitDx=0;exitDy=0;entryX=0.5;entryY=0;entryDx=0;entryDy=0;entryPerimeter=0;" edge="1" parent="1" source="ewH_RqWhpPK2ERaraLFU-4" target="ewH_RqWhpPK2ERaraLFU-10">
          <mxGeometry relative="1" as="geometry" />
        </mxCell>
      </root>
    </mxGraphModel>
  </diagram>
</mxfile>
